<svg width="180" height="47" viewBox="0 0 180 47" fill="none" xmlns="http://www.w3.org/2000/svg">
<g clip-path="url(#clip0_3_1418)">
<path d="M63.8149 34.3012C63.8149 35.8679 63.5683 37.2438 63.0792 38.4328C62.5901 39.6178 61.9062 40.6159 61.0234 41.4271C60.1406 42.2343 59.1067 42.8586 57.9217 43.3C56.7327 43.7414 55.4443 43.9959 54.0486 44.0714V39.9597C55.1024 39.7649 56.0011 39.2479 56.7486 38.4169C57.4962 37.5858 57.87 36.4087 57.87 34.8937V10.7324H63.8189V34.3012H63.8149Z" fill="#231F20"/>
<path d="M88.1551 23.3614C88.1551 25.1509 87.9722 26.8329 87.6023 28.4116C87.2365 29.9903 86.652 31.3661 85.8567 32.5432C85.0614 33.7202 84.0394 34.6507 82.7908 35.3347C81.5421 36.0187 80.039 36.3606 78.2735 36.3606C76.5079 36.3606 75.0048 36.0187 73.7561 35.3347C72.5075 34.6507 71.4856 33.7202 70.6903 32.5432C69.895 31.3701 69.3144 29.9903 68.9446 28.4116C68.5787 26.8329 68.3918 25.1509 68.3918 23.3614C68.3918 21.572 68.5748 19.8939 68.9446 18.3152C69.3104 16.7366 69.891 15.3607 70.6903 14.1837C71.4856 13.0066 72.5075 12.0801 73.7561 11.3921C75.0048 10.7082 76.5079 10.3662 78.2735 10.3662C80.039 10.3662 81.5421 10.7082 82.7908 11.3921C84.0394 12.0801 85.0614 13.0066 85.8567 14.1837C86.652 15.3567 87.2325 16.7366 87.6023 18.3152C87.9682 19.8939 88.1551 21.576 88.1551 23.3614ZM82.0989 23.1427C82.0989 22.0651 82.0511 20.9994 81.9517 19.9496C81.8523 18.8958 81.6654 17.9494 81.3831 17.1024C81.1008 16.2594 80.7111 15.5794 80.21 15.0664C79.709 14.5535 79.0648 14.295 78.2814 14.295C77.498 14.295 76.826 14.5535 76.3369 15.0664C75.8478 15.5794 75.4621 16.2594 75.1797 17.1024C74.8974 17.9454 74.7065 18.8958 74.6111 19.9496C74.5117 21.0034 74.464 22.0651 74.464 23.1427C74.464 24.2204 74.5117 25.29 74.6111 26.3557C74.7105 27.4214 74.8934 28.3679 75.1638 29.2029C75.4342 30.034 75.82 30.706 76.321 31.223C76.822 31.736 77.4782 31.9944 78.2854 31.9944C79.0926 31.9944 79.7487 31.736 80.2498 31.223C80.7508 30.71 81.1445 30.034 81.4228 29.2029C81.7052 28.3718 81.8881 27.4214 81.9756 26.3557C82.0591 25.29 82.1028 24.2204 82.1028 23.1427H82.0989Z" fill="#231F20"/>
<path d="M110.948 29.0171C110.948 30.2657 110.714 31.3553 110.252 32.2858C109.787 33.2163 109.115 33.9797 108.232 34.5802C107.35 35.1807 106.28 35.626 105.015 35.9203C103.751 36.2145 102.335 36.3617 100.769 36.3617C97.2851 36.3617 94.5851 35.8726 92.6724 34.8943V11.8346C93.5273 11.3932 94.6248 11.0393 95.957 10.7689C97.2891 10.4985 98.7882 10.3633 100.454 10.3633C102.121 10.3633 103.564 10.5343 104.785 10.8763C106.01 11.2182 107.02 11.6954 107.815 12.3078C108.61 12.9202 109.203 13.628 109.596 14.4352C109.986 15.2425 110.185 16.1252 110.185 17.0796C110.185 17.9107 110.046 18.6463 109.767 19.2826C109.489 19.9188 109.127 20.4636 108.69 20.9169C108.252 21.3702 107.771 21.744 107.25 22.0383C106.725 22.3326 106.212 22.5393 105.699 22.6626V22.7382C106.26 22.8853 106.857 23.1318 107.481 23.4738C108.105 23.8158 108.674 24.2572 109.187 24.794C109.7 25.3348 110.121 25.9512 110.455 26.6471C110.785 27.343 110.952 28.1343 110.952 29.0131L110.948 29.0171ZM104.53 17.4892C104.53 14.9681 103.186 13.7075 100.506 13.7075C100.065 13.7075 99.675 13.7274 99.341 13.7632C99.0069 13.799 98.6689 13.8785 98.327 14.0018V21.4538H99.508C101.381 21.4538 102.685 21.1356 103.425 20.4994C104.164 19.8632 104.534 18.8611 104.534 17.4892H104.53ZM104.972 28.7944C104.972 27.3032 104.566 26.1818 103.759 25.4342C102.952 24.6867 101.532 24.3129 99.5 24.3129H98.327V32.4289C98.6212 32.5522 98.9513 32.6436 99.3171 32.7033C99.6829 32.7629 100.112 32.7948 100.602 32.7948C101.997 32.7948 103.075 32.4965 103.83 31.8961C104.59 31.2956 104.968 30.2617 104.968 28.7944H104.972Z" fill="#231F20"/>
<path d="M129.053 28.4284C129.053 29.5776 128.847 30.6393 128.429 31.6056C128.012 32.5719 127.431 33.403 126.683 34.1029C125.936 34.8027 125.045 35.3515 124.003 35.7571C122.961 36.1627 121.82 36.3615 120.572 36.3615C119.005 36.3615 117.689 36.2343 116.623 35.9758C115.557 35.7173 114.67 35.3435 113.963 34.8544L115.323 30.7069C115.74 30.9773 116.301 31.2398 117.013 31.4983C117.72 31.7567 118.52 31.884 119.399 31.884C120.452 31.884 121.275 31.6096 121.876 31.0569C122.476 30.5041 122.775 29.7764 122.775 28.8738C122.775 28.0665 122.512 27.3826 121.987 26.8179C121.462 26.2572 120.548 25.6926 119.251 25.1279C118.273 24.6865 117.458 24.1895 116.81 23.6407C116.162 23.088 115.649 22.5074 115.267 21.899C114.885 21.2866 114.619 20.6623 114.46 20.026C114.301 19.3898 114.221 18.7655 114.221 18.1531C114.221 17.0993 114.404 16.0973 114.774 15.1429C115.14 14.1885 115.673 13.3614 116.372 12.6655C117.072 11.9696 117.915 11.4129 118.905 10.9954C119.896 10.5818 121.005 10.3711 122.23 10.3711C123.602 10.3711 124.775 10.5103 125.753 10.7926C126.731 11.0749 127.527 11.4249 128.139 11.8384L126.89 15.4729C126.449 15.2025 125.904 14.952 125.256 14.7214C124.608 14.4908 123.892 14.3715 123.109 14.3715C122.107 14.3715 121.347 14.6299 120.834 15.1429C120.321 15.6559 120.063 16.3677 120.063 17.2703C120.063 18.173 120.361 18.9285 120.961 19.4534C121.562 19.9783 122.401 20.4873 123.474 20.9764C124.699 21.5411 125.677 22.1217 126.413 22.7221C127.149 23.3226 127.709 23.9389 128.103 24.5752C128.493 25.2114 128.751 25.8556 128.875 26.5038C128.998 27.1519 129.057 27.7961 129.057 28.4324L129.053 28.4284Z" fill="#231F20"/>
<path d="M139.225 33.0167C139.225 33.9234 138.907 34.6948 138.271 35.3311C137.635 35.9673 136.863 36.2854 135.957 36.2854C135.05 36.2854 134.287 35.9673 133.662 35.3311C133.038 34.6948 132.728 33.9234 132.728 33.0167C132.728 32.1101 133.038 31.3386 133.662 30.7024C134.287 30.0662 135.05 29.748 135.957 29.748C136.863 29.748 137.635 30.0662 138.271 30.7024C138.907 31.3386 139.225 32.1101 139.225 33.0167Z" fill="#231F20"/>
<path d="M157.621 35.9912L156.078 30.5951H148.479L146.864 35.9912H141.54L149.763 10.7324H155.565L163.752 35.9912H157.621ZM153.028 18.9558C152.904 18.5144 152.809 18.1128 152.733 17.743C152.662 17.3772 152.598 17.059 152.55 16.7886C152.503 16.4705 152.463 16.1763 152.439 15.9059H152.368C152.344 16.1524 152.292 16.4347 152.22 16.7489C152.173 17.0193 152.105 17.3414 152.018 17.7231C151.93 18.1049 151.827 18.5105 151.707 18.9519L149.357 27.1753H155.266L153.028 18.9519V18.9558Z" fill="#231F20"/>
<path d="M172.783 14.7328V21.1946H178.804V25.0478H172.783V35.9872H166.799V10.7324H179.686V14.7328H172.783Z" fill="#231F20"/>
<path d="M23.362 46.7239C36.2644 46.7239 46.7239 36.2644 46.7239 23.362C46.7239 10.4595 36.2644 0 23.362 0C10.4595 0 0 10.4595 0 23.362C0 36.2644 10.4595 46.7239 23.362 46.7239Z" fill="white"/>
<path d="M33.5259 25.6369C32.5357 23.7481 27.5571 25.1478 27.5571 25.1478L27.5054 24.6905C24.6423 26.7702 23.4494 25.5733 22.7535 24.6468C22.6024 24.448 22.4274 25.2274 22.1809 25.1836C20.2841 24.8456 18.3953 24.4798 16.9518 25.6568C16.1287 26.3328 15.5521 27.2673 14.9715 28.158C13.7427 30.0588 12.1919 31.8403 11.7744 34.1705C11.3568 36.4888 13.1184 36.0156 15.7111 35.0772C15.3135 36.5644 14.6414 39.2048 14.7051 39.7575C14.7965 40.5369 14.717 42.1116 19.1428 42.0241C23.5687 41.9366 22.7098 40.9823 24.0737 38.8707C25.1633 37.1847 26.6982 35.6935 27.2708 35.1607C30.6946 34.0313 34.4325 27.3667 33.5259 25.633V25.6369Z" fill="white"/>
<path d="M24.6781 25.9278C24.6781 25.9278 21.5008 31.1291 25.358 34.9903C29.2192 38.8475 27.8553 38.8475 27.8553 38.8475L31.0365 39.7541L30.5792 36.5729C30.5792 36.5729 21.807 32.5248 25.0598 25.9238H24.6781V25.9278Z" fill="#EA5A4F"/>
<path d="M22.7534 22.3245L22.996 25.116C24.4514 27.0605 27.4417 25.291 27.4417 25.291L27.7678 22.2529L22.7534 22.3285V22.3245Z" fill="#FDECE7"/>
<path d="M34.5003 14.5585C34.2855 11.2898 31.9672 8.60968 31.9672 8.60968C29.1678 6.84014 26.2689 6.16016 23.883 6.16016C21.7516 6.16016 20.0298 6.70891 19.1748 7.51614C17.3576 9.23002 15.4409 14.483 15.6874 17.1592C15.7868 18.2845 15.9061 18.9287 16.3197 19.4616C15.8505 19.5292 15.4409 19.7479 15.5801 20.3245C15.8425 21.422 19.8508 22.6308 20.0894 21.764C20.2485 21.8475 20.4115 21.927 20.5825 22.0145C24.9129 24.2294 25.4458 23.5097 26.6944 23.3228C27.6488 23.1796 31.0447 20.6068 32.5836 19.3979C33.4306 20.7659 36.4647 17.8431 36.8186 15.6004C37.0691 14.0257 35.566 14.2285 34.5042 14.5585H34.5003Z" fill="#FDECE7"/>
<path d="M28.8218 12.4426C27.6407 12.6215 26.913 14.2599 27.1914 16.101C27.4737 17.9421 28.6547 19.2901 29.8318 19.1112C31.0088 18.9283 31.7405 17.2939 31.4622 15.4528C31.1997 13.723 30.134 12.4307 29.0325 12.4307C28.9609 12.4307 28.8933 12.4307 28.8218 12.4466V12.4426Z" fill="#E6E7E8"/>
<path d="M26.9686 16.1369C27.1515 17.3378 27.7122 18.3916 28.4677 18.9443C28.9131 19.2704 29.3982 19.4096 29.8635 19.338C30.3367 19.2625 30.7582 18.9881 31.0843 18.5467C31.641 17.7912 31.8676 16.6181 31.6847 15.4212C31.4978 14.2163 30.9411 13.1705 30.1816 12.6137C29.7362 12.2837 29.2551 12.1525 28.7819 12.224C27.4815 12.4189 26.6664 14.1725 26.9646 16.1369H26.9686ZM28.8534 12.6654C29.2034 12.6137 29.5692 12.7211 29.9152 12.9756C30.5753 13.4647 31.0723 14.4032 31.2354 15.4848C31.3984 16.5704 31.2115 17.6122 30.7224 18.2763C30.4719 18.6222 30.1498 18.833 29.7998 18.8847C29.4499 18.9404 29.0841 18.833 28.7381 18.5825C28.074 18.0934 27.581 17.1549 27.4139 16.0693C27.1555 14.3555 27.7997 12.8325 28.8534 12.6694V12.6654Z" fill="#231F20"/>
<path d="M28.3326 15.8742C28.4917 16.9399 29.116 17.7273 29.7164 17.6398C30.3209 17.5444 30.6788 16.6099 30.5157 15.5442C30.3527 14.4824 29.7324 13.6911 29.1279 13.7826C28.5275 13.874 28.1696 14.8085 28.3326 15.8782V15.8742Z" fill="#231F20"/>
<path d="M29.0643 15.1266C29.1836 15.902 29.5813 16.4826 29.959 16.4269C30.3328 16.3712 30.5396 15.6952 30.4243 14.9198C30.305 14.1404 29.9034 13.5559 29.5335 13.6155C29.1598 13.6712 28.953 14.3472 29.0683 15.1266H29.0643Z" fill="white"/>
<path d="M28.8258 17.1867C28.8735 17.5127 29.0405 17.7593 29.1996 17.7354C29.3547 17.7116 29.4422 17.4253 29.3905 17.0992C29.3428 16.7731 29.1758 16.5266 29.0167 16.5504C28.8576 16.5743 28.7741 16.8566 28.8258 17.1867Z" fill="white"/>
<path d="M20.2165 12.634C19.0395 12.8169 18.3078 14.4513 18.5901 16.2924C18.8685 18.1335 20.0495 19.4776 21.2305 19.3026C22.4076 19.1237 23.1393 17.4853 22.8569 15.6442C22.5945 13.9144 21.5288 12.6221 20.4273 12.6221C20.3557 12.6221 20.2881 12.6221 20.2165 12.638V12.634Z" fill="#E6E7E8"/>
<path d="M18.3636 16.3278C18.5465 17.5248 19.1072 18.5746 19.8627 19.1313C20.3081 19.4613 20.7932 19.5965 21.2624 19.5249C21.7317 19.4534 22.1532 19.179 22.4832 18.7376C23.0399 17.9781 23.2666 16.809 23.0837 15.6121C22.7854 13.6477 21.4772 12.2122 20.1808 12.411C19.7116 12.4865 19.2861 12.7609 18.9561 13.2023C18.3994 13.9578 18.1767 15.1309 18.3596 16.3278H18.3636ZM20.2484 12.8603C21.3022 12.6973 22.3719 13.9658 22.6343 15.6757C22.7974 16.7573 22.6025 17.8031 22.1174 18.4672C21.8669 18.8131 21.5448 19.0239 21.1948 19.0796C20.8449 19.1313 20.4791 19.0239 20.1331 18.7694C19.469 18.2803 18.972 17.3458 18.8089 16.2602C18.6459 15.1786 18.8368 14.1368 19.3219 13.4687C19.5764 13.1228 19.8945 12.912 20.2445 12.8603H20.2484Z" fill="#231F20"/>
<path d="M19.7234 16.0661C19.8864 17.1279 20.5107 17.9192 21.1112 17.8277C21.7156 17.7402 22.0695 16.7978 21.9104 15.7361C21.7514 14.6704 21.1271 13.883 20.5227 13.9705C19.9182 14.062 19.5603 15.0004 19.7194 16.0661H19.7234Z" fill="#231F20"/>
<path d="M20.4631 15.3141C20.5784 16.0935 20.98 16.674 21.3538 16.6184C21.7276 16.5587 21.9344 15.8867 21.8191 15.1073C21.6998 14.3319 21.3021 13.7513 20.9283 13.803C20.5545 13.8627 20.3478 14.5387 20.4631 15.3141Z" fill="white"/>
<path d="M20.2205 17.3741C20.2682 17.7041 20.4392 17.9507 20.5943 17.9268C20.7534 17.903 20.8409 17.6206 20.7892 17.2906C20.7375 16.9645 20.5705 16.718 20.4114 16.7418C20.2563 16.7697 20.1648 17.048 20.2205 17.3741Z" fill="white"/>
<path d="M22.1809 21.1673C22.2883 20.7061 22.6581 20.1652 23.1591 20.1096C23.1591 20.1096 22.2445 19.9227 22.1809 21.1673Z" fill="#231F20"/>
<path d="M27.8119 21.2111C27.5693 20.8016 27.0563 20.3959 26.5632 20.4954C26.5632 20.4954 27.3824 20.046 27.8119 21.2111Z" fill="#231F20"/>
<path d="M27.3148 20.6863C27.3148 20.6863 25.5254 23.5852 22.6106 20.4199C22.6106 20.4199 25.418 24.631 27.3148 20.6863Z" fill="#231F20"/>
<path d="M25.5531 19.4454C25.386 19.4017 24.885 19.2108 24.8055 18.9364C24.7657 18.7972 24.8373 18.6263 25.0242 18.4234L24.6902 18.1133C24.3919 18.4394 24.2845 18.7575 24.372 19.0637C24.543 19.6363 25.3503 19.859 25.4377 19.8868L25.5531 19.4454Z" fill="#231F20"/>
<path opacity="0.41" d="M33.6414 18.5866C33.6414 18.5866 36.4368 15.9223 35.4268 15.5963C34.4208 15.2702 34.7747 17.6163 33.6414 18.5866Z" fill="#231F20"/>
<path opacity="0.41" d="M18.3357 20.9162C18.3357 20.9162 16.252 20.9083 16.8922 19.8545L18.3357 20.9162Z" fill="#231F20"/>
<path d="M17.457 38.5486C17.298 38.4889 17.1071 38.6201 17.0315 38.8428C16.956 39.0576 17.0196 39.2802 17.1747 39.3399C17.3298 39.3916 17.5207 39.2604 17.5962 39.0456C17.6757 38.8229 17.6121 38.6042 17.457 38.5486Z" fill="#231F20"/>
<path d="M26.8654 24.71H26.8613L26.8736 24.7263L26.8654 24.71Z" fill="#231F20"/>
<path d="M17.8347 35.7444C17.6796 35.6927 17.4887 35.8279 17.4092 36.0427C17.3336 36.2653 17.4012 36.488 17.5563 36.5437C17.7154 36.5994 17.8983 36.4642 17.9778 36.2415C18.0574 36.0268 17.9937 35.8041 17.8347 35.7444Z" fill="#231F20"/>
<path d="M20.2284 30.4359C20.3835 30.4916 20.5704 30.3564 20.6499 30.1377C20.7294 29.919 20.6658 29.6963 20.5067 29.6446C20.3477 29.589 20.1608 29.7202 20.0813 29.9389C20.0057 30.1576 20.0693 30.3803 20.2284 30.4359Z" fill="#231F20"/>
<path d="M38.1824 16.8845C37.2797 13.9777 36.7548 10.9039 35.0886 8.30323C33.1918 5.32881 29.4499 2.8753 25.9983 2.35041C21.9463 1.73405 18.5583 3.66265 16.3513 6.99099C14.9596 9.08661 13.6871 11.6157 12.9117 14.0135C11.5358 18.2564 10.7286 20.6145 8.99878 20.3719C9.26521 20.4395 12.2794 21.1155 13.9615 18.1133C13.9615 18.1133 13.9933 19.7079 13.6473 20.9366C13.6473 20.9366 14.6335 20.4236 15.5839 19.0796C15.5998 19.1233 15.6157 19.1631 15.6356 19.2028C15.4805 19.2863 15.3572 19.3977 15.2658 19.5329C15.1504 19.7039 15.0311 19.9981 15.1345 20.4276C15.4129 21.5927 18.0533 22.4874 19.3178 22.5113C19.7234 22.5153 20.0018 22.4397 20.1847 22.3244L20.3716 22.4159C21.151 22.8135 21.8151 23.1237 22.3877 23.3583L22.4752 24.3802H22.4712C22.4712 24.3802 22.3439 24.5274 22.2008 24.7302C22.1849 24.7262 22.1729 24.7262 22.157 24.7222C20.2324 24.3763 18.2402 24.0184 16.6655 25.3107C15.8304 25.9947 15.2498 26.8974 14.6852 27.7722L14.5937 27.9114C14.3353 28.313 14.0569 28.7186 13.7865 29.1043C12.7486 30.6114 11.675 32.1623 11.325 34.0988C11.162 35.0055 11.2972 35.6258 11.7346 35.9916C12.4106 36.5603 13.5916 36.3018 15.1942 35.7491C14.9198 36.3972 14.3074 37.9918 14.3074 39.4075C14.3074 39.8449 14.3671 40.2704 14.5142 40.6402C14.6454 40.9702 14.8283 41.2406 15.0709 41.4554C15.2498 41.7576 15.397 42.02 15.4805 42.1632C15.4805 42.1632 14.6573 42.1075 13.4445 42.0359C12.2277 41.9683 10.6212 41.8808 9.0465 41.8172C10.0128 42.5688 11.0387 43.2448 12.1164 43.8373C12.1164 43.8373 12.1164 43.8413 12.1124 43.8413C12.4862 44.048 12.8639 44.2429 13.2497 44.4218C13.4366 44.5133 13.6274 44.6008 13.8143 44.6843C14.1921 44.8592 14.5778 45.0183 14.9715 45.1654C15.1663 45.241 15.3612 45.3126 15.56 45.3841C15.9457 45.5233 16.3394 45.6466 16.7371 45.7659C16.9756 45.8335 17.2142 45.9011 17.4568 45.9607C17.5721 45.9965 17.6874 46.0244 17.8067 46.0522C17.8425 46.0602 17.8743 46.0681 17.9101 46.0761C17.934 46.08 17.9618 46.088 17.9857 46.0959H17.9817L17.9857 46.092C19.7075 46.5055 21.5089 46.7242 23.3619 46.7242C23.7556 46.7242 24.1453 46.7123 24.531 46.6924C25.1036 45.0064 24.5549 42.7119 23.4574 40.8191C23.4971 40.7515 23.525 40.6799 23.5528 40.6084C24.0101 39.3438 24.8253 38.1668 26.4994 36.4291C27.7599 37.8407 27.923 38.3855 27.923 38.5684C27.923 38.6002 27.915 38.6241 27.911 38.636C27.9031 38.6718 27.8673 38.6758 27.8554 38.6758L27.8116 39.0098L30.9928 39.9204L31.2434 39.992L31.2036 39.7335L30.7503 36.5523L30.7383 36.4609L30.6548 36.4211C30.631 36.4092 29.6527 35.9519 28.4837 35.1049C30.0584 34.1545 31.5257 32.3611 32.5437 30.6512C33.6054 28.8737 34.5279 26.5673 33.9315 25.43C32.9851 23.6128 29.4022 24.2411 27.9786 24.5711L28.1337 23.1396C29.3704 22.4039 31.0644 21.1513 32.5437 20.0021C32.8101 20.185 33.1481 20.2487 33.5179 20.1731C35.0131 19.8709 36.9695 17.5128 37.2638 15.6677C37.3115 15.3735 37.3035 15.115 37.2519 14.8883C37.6336 15.5405 37.9796 16.2364 38.1824 16.8845ZM23.0955 23.6247L23.0716 23.3782C23.1551 23.406 23.2347 23.4338 23.3102 23.4577C24.8571 23.9746 25.5371 23.8116 26.2011 23.6565C26.3761 23.6088 26.5431 23.569 26.7221 23.5492C26.8453 23.5293 27.0004 23.4776 27.1873 23.3941C27.2629 23.3583 27.3424 23.3185 27.4299 23.2748L27.402 23.5372L27.3305 24.2132L27.247 25.0046L27.2311 25.1477C27.1555 25.1875 27.0362 25.2511 26.8811 25.3187C26.0461 25.6965 24.2288 26.3009 23.2188 25.0284L23.1671 24.4518L23.0955 23.6247ZM27.3464 25.8516C27.247 26.6508 26.9646 27.4501 26.7897 27.8915L25.7001 26.4083C26.388 26.285 26.9925 26.0265 27.3464 25.8516ZM22.2008 25.6527C22.2405 25.5812 22.2803 25.5135 22.3201 25.4459C22.3956 25.3267 22.4672 25.2153 22.5388 25.1159V25.1557C22.5507 25.2352 22.5785 25.3187 22.6302 25.3863C22.9285 25.784 23.2784 26.0544 23.6482 26.2253L21.7713 27.2433C21.6918 26.7343 21.9224 26.1458 22.2008 25.6527ZM12.3152 35.2958C12.1601 35.1606 12.1283 34.7947 12.2237 34.2579C12.5339 32.5162 13.5042 31.1085 14.5341 29.6253C14.8085 29.2236 15.0908 28.818 15.3572 28.4045L15.4487 28.2653C15.9736 27.4461 16.5184 26.6031 17.2421 26.0106C18.4271 25.0403 20.0057 25.263 21.6958 25.5613C21.3776 26.1935 21.143 26.9809 21.4174 27.6648L21.5089 27.8995L21.7355 27.7802L24.2248 26.4321C24.1214 26.6508 24.0021 26.9252 23.8868 27.2473C23.1989 28.3886 21.9701 30.2297 20.6301 31.2715C19.0514 31.4346 17.4966 31.7646 16.2957 32.0668H16.2917C17.6318 30.3808 18.2601 29.3588 18.1567 29.0328L17.7232 29.1799C17.7193 29.156 17.7193 29.1441 17.7193 29.1441C17.7034 29.4185 16.741 30.7824 15.8543 31.8919L16.1247 32.1066C15.0391 32.3849 14.2716 32.6355 14.0887 32.6951C14.0847 32.6991 14.0808 32.6991 14.0768 32.6991C14.0648 32.7031 14.0569 32.707 14.0529 32.707L14.1722 33.1405C14.1722 33.1405 14.1881 33.1365 14.1961 33.1365C14.1961 33.1365 14.208 33.1365 14.2199 33.1365C15.1465 32.9576 17.1387 33.391 18.5185 33.7489C18.0652 33.8085 17.588 33.9239 17.083 34.1028L16.2599 34.401C14.546 35.0333 12.7765 35.6854 12.3152 35.2997V35.2958ZM23.3341 31.2C22.5945 31.1522 21.8151 31.1721 21.0317 31.2357C22.0377 30.3768 22.9484 29.1481 23.6045 28.1341C23.3659 29.0168 23.2068 30.0826 23.3341 31.2ZM24.9366 34.7828C24.1015 34.6675 23.3341 34.4567 22.5865 34.2539C21.7713 34.0312 20.98 33.8125 20.1449 33.725H20.129C19.9898 33.6813 17.5483 32.9337 15.6714 32.707C17.5244 32.206 20.7851 31.4704 23.4017 31.6612C23.5926 32.711 24.0499 33.7847 24.9366 34.7828ZM15.9298 41.1929C15.556 41.0458 15.3015 40.7794 15.1504 40.3936C15.0629 40.1709 15.0152 39.9244 14.9953 39.658C14.884 38.0117 15.9338 35.757 15.9418 35.7332L15.9577 35.7014V35.6735C15.9736 35.6059 15.9736 35.5383 15.9656 35.4707H15.9696C16.1644 35.3991 16.3672 35.3236 16.574 35.248L17.3932 34.9538C18.0056 34.7311 18.5663 34.6237 19.1071 34.5999C18.6895 35.3395 18.0891 36.7313 18.0891 38.636C18.0891 39.0416 18.1169 39.4711 18.1805 39.9204C18.2442 40.4135 18.3515 40.9305 18.5146 41.4752C18.5344 41.5508 18.5583 41.6264 18.5822 41.7019C17.6159 41.6621 16.6655 41.4911 15.9298 41.1929ZM26.0341 35.928C24.3958 37.6379 23.525 38.8428 23.008 40.1113C22.9722 40.2028 22.9404 40.2902 22.9086 40.3777C22.7973 40.6879 22.4712 40.9742 21.9701 41.2009C21.1629 41.5588 19.9938 41.7297 18.8247 41.7059C18.7969 41.6303 18.773 41.5587 18.7531 41.4832C18.5861 40.9384 18.4748 40.4215 18.4072 39.9284C18.0334 37.2761 18.8883 35.4031 19.3735 34.5919C20.3835 34.5879 21.322 34.8464 22.3519 35.1287C23.4375 35.427 24.5549 35.7332 25.891 35.7729C25.9387 35.8246 25.9864 35.8723 26.0341 35.924V35.928ZM30.4242 36.6915L30.8338 39.5228L28.2252 38.7752H28.2292C28.3007 38.5923 28.5115 38.0793 26.3682 35.7849C26.3006 35.7093 26.229 35.6338 26.1534 35.5542H26.1494C26.0103 35.4031 25.8592 35.248 25.7001 35.085L25.4536 34.8385C24.4833 33.8563 23.9823 32.7667 23.7794 31.697C23.7476 31.5419 23.7238 31.3868 23.7039 31.2318C23.4693 29.2594 24.1532 27.4143 24.5827 26.4838C24.5827 26.4798 24.5867 26.4798 24.5867 26.4759H24.6344C24.0578 27.9511 24.018 29.4185 24.5191 30.8341C24.5867 31.025 24.6622 31.2119 24.7497 31.3948C24.8332 31.5817 24.9247 31.7646 25.0241 31.9396C25.6325 33.0212 26.4875 33.9318 27.3424 34.6595C27.41 34.7192 27.4776 34.7788 27.5452 34.8305C27.6764 34.9379 27.8037 35.0413 27.9309 35.1407C28.0025 35.1924 28.0701 35.2441 28.1377 35.2958C29.1955 36.0712 30.126 36.5444 30.4202 36.6915H30.4242ZM33.1282 25.8476C33.4026 26.3764 33.0208 28.0784 31.7643 30.1859C30.7105 31.9515 29.1756 33.737 27.7003 34.4965C26.8414 33.7847 25.9745 32.89 25.3621 31.8322C25.7319 31.4306 27.7798 29.16 28.5751 27.4143L28.1616 27.2314C27.4617 28.7703 25.6723 30.8142 25.1354 31.4107C25.0241 31.184 24.9247 30.9534 24.8412 30.7148C24.356 29.3469 24.4077 27.9193 25.0002 26.4838C25.0599 26.4838 25.1195 26.4838 25.1832 26.4798L26.6584 28.476L26.8851 28.7822L27.0442 28.4403C27.08 28.3607 27.752 26.9292 27.8236 25.5493C29.1358 25.1994 32.484 24.6188 33.1282 25.8476ZM36.5917 15.5643C36.3213 17.2504 34.5001 19.2784 33.3907 19.5011C33.0129 19.5766 32.8578 19.4136 32.7743 19.2784L32.6391 19.0637L32.4403 19.2187C30.7065 20.5708 29.2511 21.6285 28.2093 22.2966C28.1297 22.3482 28.0502 22.396 27.9786 22.4397C27.8912 22.4954 27.8116 22.5431 27.7321 22.5908C27.6446 22.6425 27.5651 22.6902 27.4856 22.734C27.3981 22.7817 27.3185 22.8254 27.243 22.8652C26.9845 22.9964 26.7897 23.076 26.6584 23.0958C26.4517 23.1237 26.2727 23.1674 26.0938 23.2151C25.4377 23.3702 24.8094 23.5213 23.2665 22.9686C23.1909 22.9447 23.1114 22.9129 23.0319 22.8811C22.9563 22.8533 22.8768 22.8215 22.7933 22.7896C22.7177 22.7578 22.6382 22.726 22.5587 22.6902C22.4831 22.6624 22.4076 22.6306 22.324 22.5948C21.8508 22.388 21.3061 22.1295 20.6778 21.8074L20.1887 21.5609L19.9421 21.4337L19.8666 21.7001C19.8546 21.7558 19.6956 21.8353 19.3297 21.8313C18.1249 21.8114 15.9577 20.9366 15.7986 20.2725C15.7628 20.1174 15.7747 20.0021 15.8304 19.9146C15.906 19.8033 16.0889 19.7238 16.3513 19.688L16.741 19.6283L16.4985 19.3182C16.2837 19.0478 16.1565 18.7336 16.069 18.3161C16.411 17.6957 16.7251 16.9521 16.9518 16.0614C17.8902 12.399 17.8823 8.1402 22.4553 8.08453C22.4553 8.08453 23.7039 9.28145 26.571 9.90974C29.4221 10.538 31.7245 12.407 31.9273 12.9279C31.8955 12.7808 31.3149 10.3829 27.1992 8.42651C27.1992 8.42651 31.9392 8.78837 33.9911 12.9398C34.1343 13.4608 34.2377 14.0095 34.2734 14.5742L34.2933 14.8565L34.5677 14.773C35.4664 14.4947 36.1225 14.4748 36.4168 14.7293C36.5918 14.8844 36.6514 15.1667 36.5917 15.5643ZM34.8978 13.9817C34.8898 13.9141 34.8739 13.8465 34.8659 13.7789L35.4584 12.2877C35.4584 12.2877 36.1265 13.1069 36.8224 14.1885C36.4088 13.8584 35.7686 13.7829 34.8978 13.9817Z" fill="#231F20"/>
<path d="M21.1191 5.36071C21.2264 5.73052 21.7752 7.31715 23.1749 8.05678C23.9702 8.47034 24.7934 8.85606 25.6523 9.11851C26.8174 9.46844 27.9547 9.67124 29.0204 10.2876C29.7083 10.6892 30.3565 11.1545 30.9768 11.6515C30.5513 11.2976 30.2292 10.7926 29.764 10.4387C28.587 9.55195 27.1196 9.39686 25.7517 8.97933C24.4832 8.58566 23.2306 7.99713 22.2643 7.06265C21.7553 6.57354 21.3378 5.95321 21.0952 5.28516C21.0952 5.28516 21.1032 5.30902 21.1191 5.36071Z" fill="#808285"/>
<path d="M27.4539 7.63503C31.0208 7.90146 34.2934 10.8282 34.5241 13.0152C34.5241 13.0152 34.4326 9.09441 29.8954 7.76626C25.3543 6.4381 24.8135 7.52767 22.7974 5.51953C22.7974 5.51953 23.8869 7.36861 27.4539 7.63106V7.63503Z" fill="#808285"/>
<path d="M16.4188 12.6418C16.1087 15.9184 14.7527 18.9445 14.7527 18.9445C16.2558 16.9046 16.5819 15.0396 17.2539 11.5045C17.6078 9.66337 18.3832 8.47042 19.0513 7.7467C17.7351 8.8641 16.6614 10.069 16.4188 12.6418ZM19.0513 7.7467C19.4092 7.44448 19.7869 7.14625 20.1687 6.82812C20.1687 6.82812 19.6557 7.09057 19.0513 7.7467Z" fill="#808285"/>
</g>
<defs>
<clipPath id="clip0_3_1418">
<rect width="179.682" height="46.7239" fill="white"/>
</clipPath>
</defs>
</svg>
